<mxfile host="app.diagrams.net" agent="Mozilla/5.0 (Macintosh; Intel Mac OS X 10_15_7) AppleWebKit/537.36 (KHTML, like Gecko) Chrome/140.0.0.0 Safari/537.36 Edg/140.0.0.0" version="28.2.4">
  <diagram name="第 1 页" id="YLr7R29h2KzqXhwUh3Ht">
    <mxGraphModel dx="994" dy="565" grid="1" gridSize="10" guides="1" tooltips="1" connect="1" arrows="1" fold="1" page="1" pageScale="1" pageWidth="1169" pageHeight="827" math="0" shadow="0">
      <root>
        <mxCell id="0" />
        <mxCell id="1" parent="0" />
        <mxCell id="MOHc5WXCvnnTAh8TWu6C-4" value="" style="edgeStyle=orthogonalEdgeStyle;rounded=0;orthogonalLoop=1;jettySize=auto;html=1;" edge="1" parent="1" source="MOHc5WXCvnnTAh8TWu6C-1" target="MOHc5WXCvnnTAh8TWu6C-3">
          <mxGeometry relative="1" as="geometry" />
        </mxCell>
        <mxCell id="MOHc5WXCvnnTAh8TWu6C-1" value="&lt;font style=&quot;font-size: 16px;&quot;&gt;开始分配内存&lt;/font&gt;" style="ellipse;whiteSpace=wrap;html=1;aspect=fixed;" vertex="1" parent="1">
          <mxGeometry x="180" y="30" width="80" height="80" as="geometry" />
        </mxCell>
        <mxCell id="MOHc5WXCvnnTAh8TWu6C-6" value="" style="edgeStyle=orthogonalEdgeStyle;rounded=0;orthogonalLoop=1;jettySize=auto;html=1;" edge="1" parent="1" source="MOHc5WXCvnnTAh8TWu6C-3" target="MOHc5WXCvnnTAh8TWu6C-5">
          <mxGeometry relative="1" as="geometry" />
        </mxCell>
        <mxCell id="MOHc5WXCvnnTAh8TWu6C-7" value="符合" style="edgeLabel;html=1;align=center;verticalAlign=middle;resizable=0;points=[];" vertex="1" connectable="0" parent="MOHc5WXCvnnTAh8TWu6C-6">
          <mxGeometry x="-0.2" relative="1" as="geometry">
            <mxPoint as="offset" />
          </mxGeometry>
        </mxCell>
        <mxCell id="MOHc5WXCvnnTAh8TWu6C-3" value="是否符合&lt;div&gt;栈内分配&lt;/div&gt;&lt;div&gt;标准&lt;/div&gt;" style="rhombus;whiteSpace=wrap;html=1;" vertex="1" parent="1">
          <mxGeometry x="180" y="190" width="80" height="80" as="geometry" />
        </mxCell>
        <mxCell id="MOHc5WXCvnnTAh8TWu6C-9" value="" style="edgeStyle=orthogonalEdgeStyle;rounded=0;orthogonalLoop=1;jettySize=auto;html=1;" edge="1" parent="1" source="MOHc5WXCvnnTAh8TWu6C-5" target="MOHc5WXCvnnTAh8TWu6C-8">
          <mxGeometry relative="1" as="geometry" />
        </mxCell>
        <mxCell id="MOHc5WXCvnnTAh8TWu6C-10" value="POP&lt;div&gt;用完直接清理&lt;/div&gt;" style="edgeLabel;html=1;align=center;verticalAlign=middle;resizable=0;points=[];" vertex="1" connectable="0" parent="MOHc5WXCvnnTAh8TWu6C-9">
          <mxGeometry x="-0.2" y="-2" relative="1" as="geometry">
            <mxPoint as="offset" />
          </mxGeometry>
        </mxCell>
        <mxCell id="MOHc5WXCvnnTAh8TWu6C-5" value="在线程的栈空间&lt;span style=&quot;background-color: transparent; color: light-dark(rgb(0, 0, 0), rgb(255, 255, 255));&quot;&gt;内&lt;/span&gt;&lt;div&gt;&lt;span style=&quot;background-color: transparent; color: light-dark(rgb(0, 0, 0), rgb(255, 255, 255));&quot;&gt;的方法栈帧里&lt;/span&gt;&lt;/div&gt;&lt;div&gt;&lt;span style=&quot;background-color: transparent; color: light-dark(rgb(0, 0, 0), rgb(255, 255, 255));&quot;&gt;分配内存&lt;/span&gt;&lt;/div&gt;" style="whiteSpace=wrap;html=1;" vertex="1" parent="1">
          <mxGeometry x="320" y="200" width="120" height="60" as="geometry" />
        </mxCell>
        <mxCell id="MOHc5WXCvnnTAh8TWu6C-8" value="结束" style="ellipse;whiteSpace=wrap;html=1;" vertex="1" parent="1">
          <mxGeometry x="600" y="190" width="80" height="80" as="geometry" />
        </mxCell>
      </root>
    </mxGraphModel>
  </diagram>
</mxfile>
